# xmcd
#
# Track frame offsets: 
#        150
#        11337
#        22432
#        33582
#        43620
#        54880
#
# Disc length: 885 seconds
#
# Revision: 0
# Processed by: cddbd v1.5.1PL0 Copyright (c) Steve Scherf et al.
# Submitted via: ExactAudioCopy v0.95a5
#
DISCID=45037306
DTITLE=Various Artist - Snippets Sampler
DYEAR=1900
DGENRE=R&B
TTITLE0=Dazz Band - You Are My Starship
TTITLE1=Dazz Band - What's Up in Your World
TTITLE2=Dazz Band - Girl You Got a Body
TTITLE3=The Bar-Kays - Soul Finger
TTITLE4=The Bar-Kays - Shake Your Rump
TTITLE5=The Bar-Kays - The Way You Shake (remix)
EXTD=
EXTT0=
EXTT1=
EXTT2=
EXTT3=
EXTT4=
EXTT5=
PLAYORDER=
